<svg id="ad17fcb1-fe8b-40dc-b550-edce87b7084a" data-name="0bf87db5-7efc-4c3f-b450-65b8e1bbdec7" xmlns="http://www.w3.org/2000/svg" width="2085.49" height="1001.32" viewBox="0 0 2085.49 1001.32"><title>background2</title><g id="31e7d2e9-25ce-4391-9902-08bcaef91633" data-name="f489d2c9-7e5b-46ee-a6c1-d795347b0573"><polygon points="1241.14 303.45 1236.94 303.3 1233.19 305.1 1233.34 300.9 1231.39 297.15 1235.74 297.3 1239.49 295.5 1239.19 299.7 1241.14 303.45" fill="#e1669e"/><polygon points="1849.99 83.73 1845.79 83.58 1842.04 85.38 1842.19 81.18 1840.24 77.43 1844.59 77.58 1848.34 75.78 1848.04 79.98 1849.99 83.73" fill="#e1d066"/><polygon points="780.64 508.95 776.44 508.8 772.69 510.6 772.84 506.4 770.89 502.65 775.24 502.8 778.99 501 778.69 505.2 780.64 508.95" fill="#e1669e"/><polygon points="824.14 13.95 819.94 13.8 816.19 15.6 816.34 11.4 814.39 7.65 818.74 7.8 822.49 6 822.19 10.2 824.14 13.95" fill="#66c0e1"/><polygon points="1310.14 496.95 1305.94 496.8 1302.19 498.6 1302.34 494.4 1300.39 490.65 1304.74 490.8 1308.49 489 1308.19 493.2 1310.14 496.95" fill="#66c0e1"/><polygon points="1927.99 468.15 1923.79 468 1920.04 469.8 1920.19 465.6 1918.24 461.85 1922.59 462 1926.34 460.2 1926.04 464.4 1927.99 468.15" fill="#e1669e"/><polygon points="1047.64 303.45 1043.44 303.3 1039.69 305.1 1039.84 300.9 1037.89 297.15 1042.24 297.3 1045.99 295.5 1045.69 299.7 1047.64 303.45" fill="#66c0e1"/><polygon points="992.14 7.95 987.94 7.8 984.19 9.6 984.34 5.4 982.39 1.65 986.74 1.8 990.49 0 990.19 4.2 992.14 7.95" fill="#66c0e1"/><polygon points="1359.49 55.27 1355.29 55.13 1351.54 56.92 1351.69 52.73 1349.74 48.98 1354.09 49.13 1357.84 47.33 1357.54 51.52 1359.49 55.27" fill="#e1d066"/><polygon points="813.49 73.28 809.29 73.13 805.54 74.92 805.69 70.72 803.74 66.97 808.09 67.13 811.84 65.33 811.54 69.53 813.49 73.28" fill="#e1669e"/><polygon points="1005.49 73.28 1001.29 73.13 997.54 74.92 997.69 70.72 995.74 66.97 1000.09 67.13 1003.84 65.33 1003.54 69.53 1005.49 73.28" fill="#e1d066"/><polygon points="1913.14 694.95 1908.94 694.8 1905.19 696.6 1905.34 692.4 1903.39 688.65 1907.74 688.8 1911.49 687 1911.19 691.2 1913.14 694.95" fill="#e1d066"/><polygon points="2085.49 352.65 2081.29 352.5 2077.54 354.3 2077.69 350.1 2075.74 346.35 2080.09 346.5 2083.84 344.7 2083.54 348.9 2085.49 352.65" fill="#66c0e1"/><polygon points="1661.54 328.13 1657.34 327.98 1653.59 329.77 1653.73 325.57 1651.79 321.82 1656.13 321.98 1659.88 320.18 1659.59 324.38 1661.54 328.13" fill="#e1669e"/><polygon points="462.97 61.01 458.77 60.86 455.02 62.66 455.17 58.46 453.22 54.71 457.57 54.86 461.32 53.06 461.02 57.26 462.97 61.01" fill="#66c0e1"/><polygon points="1761.49 203.78 1757.29 203.63 1753.54 205.43 1753.69 201.22 1751.74 197.47 1756.09 197.63 1759.84 195.82 1759.54 200.03 1761.49 203.78" fill="#e1669e"/><polygon points="2005.24 47.4 2001.04 47.25 1997.29 49.05 1997.44 44.85 1995.49 41.1 1999.84 41.25 2003.59 39.45 2003.29 43.65 2005.24 47.4" fill="#66c0e1"/><polygon points="1954.04 239.63 1949.84 239.47 1946.09 241.28 1946.23 237.07 1944.29 233.32 1948.63 233.47 1952.38 231.68 1952.09 235.88 1954.04 239.63" fill="#66c0e1"/><polygon points="2060.14 594.45 2055.94 594.3 2052.19 596.1 2052.34 591.9 2050.39 588.15 2054.74 588.3 2058.49 586.5 2058.19 590.7 2060.14 594.45" fill="#66c0e1"/><polygon points="992.14 594.45 987.94 594.3 984.19 596.1 984.34 591.9 982.39 588.15 986.74 588.3 990.49 586.5 990.19 590.7 992.14 594.45" fill="#e1d066"/><circle cx="1341.79" cy="100.95" r="3.3" fill="#e1669e"/><circle cx="1590.64" cy="393.15" r="3.3" fill="#e1669e"/><circle cx="1725.79" cy="558.45" r="3.3" fill="#e1669e"/><circle cx="557.29" cy="415.95" r="3.3" fill="#99a1a3"/><circle cx="669.79" cy="40.95" r="3.3" fill="#e1669e"/><polygon points="1231.16 84.22 1231.02 88.42 1232.82 92.17 1228.62 92.03 1224.87 93.97 1225.02 89.63 1223.21 85.88 1227.41 86.17 1231.16 84.22" fill="#e1669e"/><polygon points="571.09 522.3 570.94 526.5 572.74 530.25 568.54 530.1 564.79 532.05 564.94 527.7 563.14 523.95 567.34 524.25 571.09 522.3" fill="#66c0e1"/><polygon points="935.66 333.23 935.51 337.43 937.32 341.18 933.12 341.02 929.37 342.98 929.51 338.63 927.72 334.88 931.91 335.18 935.66 333.23" fill="#66c0e1"/><polygon points="860.66 153.22 860.51 157.43 862.32 161.18 858.12 161.03 854.37 162.97 854.51 158.63 852.72 154.88 856.91 155.18 860.66 153.22" fill="#66c0e1"/><circle cx="677.44" cy="233.47" r="3.3" fill="#e1669e"/><polygon points="1346.74 540.6 1346.89 536.4 1345.09 532.65 1349.29 532.8 1353.04 530.85 1352.89 535.2 1354.69 538.95 1350.49 538.65 1346.74 540.6" fill="#e1669e"/><polygon points="372.22 36.34 372.37 32.14 370.57 28.39 374.77 28.54 378.52 26.59 378.37 30.94 380.17 34.69 375.97 34.39 372.22 36.34" fill="#e1d066"/><polygon points="1636.24 123.6 1636.39 119.4 1634.59 115.65 1638.79 115.8 1642.54 113.85 1642.39 118.2 1644.19 121.95 1639.99 121.65 1636.24 123.6" fill="#66c0e1"/><polygon points="1346.74 347.1 1346.89 342.9 1345.09 339.15 1349.29 339.3 1353.04 337.35 1352.89 341.7 1354.69 345.45 1350.49 345.15 1346.74 347.1" fill="#66c0e1"/><polygon points="1717.24 471.6 1717.39 467.4 1715.59 463.65 1719.79 463.8 1723.54 461.85 1723.39 466.2 1725.19 469.95 1720.99 469.65 1717.24 471.6" fill="#66c0e1"/><circle cx="1549.24" cy="641.25" r="3.3" fill="#e1669e"/><circle cx="1953.75" cy="329.7" r="3.3" fill="#99a1a3"/><circle cx="1683.28" cy="56.92" r="3.3" fill="#e1669e"/><polygon points="360.8 158.31 365.01 158.46 368.77 156.66 368.62 160.87 370.57 164.63 366.21 164.47 362.45 166.28 362.75 162.07 360.8 158.31" fill="#e1669e"/><polygon points="48.84 900.65 53.05 900.8 56.81 898.99 56.66 903.2 58.62 906.96 54.26 906.81 50.49 908.62 50.8 904.41 48.84 900.65" fill="#66c0e1"/><polygon points="359.29 305.64 363.5 305.8 367.26 303.99 367.11 308.2 369.07 311.96 364.71 311.81 360.95 313.61 361.25 309.4 359.29 305.64" fill="#66c0e1"/><polygon points="93.15 364.28 97.36 364.43 101.12 362.62 100.97 366.83 102.92 370.59 98.56 370.44 94.8 372.25 95.11 368.04 93.15 364.28" fill="#66c0e1"/><polygon points="148.78 660.45 153 660.6 156.75 658.8 156.6 663.01 158.56 666.76 154.2 666.62 150.44 668.42 150.74 664.21 148.78 660.45" fill="#66c0e1"/><polygon points="59.52 841.19 63.73 841.34 67.49 839.53 67.34 843.74 69.29 847.5 64.93 847.35 61.17 849.16 61.47 844.95 59.52 841.19" fill="#e1669e"/><polygon points="135.4 594.98 139.61 595.13 143.37 593.32 143.22 597.53 145.18 601.29 140.81 601.14 137.06 602.95 137.36 598.74 135.4 594.98" fill="#e1d066"/><polygon points="11.88 424.49 16.09 424.64 19.85 422.84 19.7 427.05 21.65 430.8 17.29 430.65 13.53 432.46 13.83 428.25 11.88 424.49" fill="#e1d066"/><polygon points="0 154.18 4.21 154.33 7.97 152.52 7.82 156.73 9.77 160.49 5.41 160.34 1.65 162.14 1.96 157.94 0 154.18" fill="#e1d066"/><polygon points="148.78 72.62 153 72.77 156.75 70.96 156.6 75.17 158.56 78.93 154.2 78.78 150.44 80.58 150.74 76.37 148.78 72.62" fill="#e1d066"/><circle cx="584.69" cy="251.52" r="3.31" fill="#99a1a3"/><polygon points="280.58 514.85 280.73 510.64 278.92 506.88 283.13 507.03 286.89 505.07 286.74 509.43 288.55 513.19 284.34 512.89 280.58 514.85" fill="#66c0e1"/><circle cx="464.25" cy="434.41" r="3.31" fill="#e1669e"/><circle cx="504.85" cy="292.72" r="3.31" fill="#99a1a3"/><circle cx="172.32" cy="11.35" r="3.31" fill="#e1669e"/><polygon points="1323.27 830.42 1319.07 830.27 1315.32 832.08 1315.47 827.88 1313.52 824.13 1317.87 824.27 1321.62 822.48 1321.32 826.67 1323.27 830.42" fill="#e1669e"/><polygon points="1896.12 953.13 1891.92 952.98 1888.17 954.77 1888.32 950.58 1886.37 946.83 1890.72 946.98 1894.47 945.17 1894.17 949.38 1896.12 953.13" fill="#e1d066"/><polygon points="2010.12 995.13 2005.92 994.98 2002.17 996.77 2002.32 992.58 2000.37 988.83 2004.72 988.98 2008.47 987.17 2008.17 991.38 2010.12 995.13" fill="#e1669e"/><polygon points="1224.12 995.13 1219.92 994.98 1216.17 996.77 1216.32 992.58 1214.37 988.83 1218.72 988.98 1222.47 987.17 1222.17 991.38 1224.12 995.13" fill="#66c0e1"/><polygon points="1210.84 770.35 1206.64 770.2 1202.89 772 1203.04 767.8 1201.09 764.05 1205.44 764.2 1209.19 762.4 1208.89 766.6 1210.84 770.35" fill="#e1d066"/><polygon points="1743.66 855.1 1739.46 854.95 1735.71 856.75 1735.86 852.55 1733.91 848.8 1738.26 848.95 1742.01 847.15 1741.71 851.35 1743.66 855.1" fill="#e1669e"/><polygon points="1843.62 730.75 1839.42 730.6 1835.67 732.4 1835.82 728.2 1833.87 724.45 1838.22 724.6 1841.97 722.8 1841.67 727 1843.62 730.75" fill="#e1669e"/><polygon points="1845.12 636.25 1840.92 636.1 1837.17 637.9 1837.32 633.7 1835.37 629.95 1839.72 630.1 1843.47 628.3 1843.17 632.5 1845.12 636.25" fill="#66c0e1"/><polygon points="2036.16 766.6 2031.96 766.45 2028.21 768.25 2028.36 764.05 2026.41 760.3 2030.76 760.45 2034.51 758.65 2034.21 762.85 2036.16 766.6" fill="#66c0e1"/><circle cx="1672.77" cy="920.13" r="3.3" fill="#e1669e"/><circle cx="1961.31" cy="916.6" r="3.3" fill="#e1669e"/><polygon points="1313.29 611.2 1313.14 615.4 1314.94 619.15 1310.74 619 1306.99 620.95 1307.14 616.6 1305.34 612.85 1309.54 613.15 1313.29 611.2" fill="#e1669e"/><polygon points="1211.29 972.7 1211.14 976.9 1212.94 980.65 1208.74 980.5 1204.99 982.45 1205.14 978.1 1203.34 974.35 1207.54 974.65 1211.29 972.7" fill="#e1d066"/><polygon points="1310.14 729.02 1309.99 733.23 1311.79 736.98 1307.59 736.83 1303.84 738.77 1303.99 734.42 1302.19 730.67 1306.39 730.98 1310.14 729.02" fill="#e1669e"/><polygon points="1428.87 874.08 1429.02 869.88 1427.22 866.13 1431.42 866.27 1435.17 864.33 1435.02 868.67 1436.82 872.42 1432.62 872.13 1428.87 874.08" fill="#66c0e1"/><polygon points="1799.37 998.58 1799.52 994.38 1797.72 990.63 1801.92 990.77 1805.67 988.83 1805.52 993.17 1807.32 996.92 1803.12 996.63 1799.37 998.58" fill="#66c0e1"/><circle cx="2035.88" cy="856.68" r="3.3" fill="#99a1a3"/><polygon points="405.91 833.17 401.71 833.02 397.96 834.82 398.11 830.62 396.16 826.87 400.51 827.02 404.26 825.22 403.96 829.42 405.91 833.17" fill="#e1669e"/><polygon points="978.76 955.87 974.56 955.72 970.81 957.52 970.96 953.32 969.01 949.57 973.36 949.72 977.11 947.92 976.81 952.12 978.76 955.87" fill="#e1d066"/><polygon points="1092.76 997.87 1088.56 997.72 1084.81 999.52 1084.96 995.32 1083.01 991.57 1087.36 991.72 1091.11 989.92 1090.81 994.12 1092.76 997.87" fill="#e1669e"/><polygon points="306.76 997.87 302.56 997.72 298.81 999.52 298.96 995.32 297.01 991.57 301.36 991.72 305.11 989.92 304.81 994.12 306.76 997.87" fill="#66c0e1"/><polygon points="293.49 773.1 289.29 772.95 285.54 774.75 285.69 770.55 283.74 766.8 288.09 766.95 291.84 765.15 291.54 769.35 293.49 773.1" fill="#e1d066"/><polygon points="826.31 857.85 822.11 857.7 818.36 859.5 818.51 855.3 816.56 851.55 820.91 851.7 824.66 849.9 824.36 854.1 826.31 857.85" fill="#e1669e"/><polygon points="926.26 733.5 922.06 733.35 918.31 735.15 918.46 730.95 916.51 727.2 920.86 727.35 924.61 725.55 924.31 729.75 926.26 733.5" fill="#e1669e"/><circle cx="238.21" cy="876.88" r="3.3" fill="#e1669e"/><circle cx="755.41" cy="922.87" r="3.3" fill="#e1669e"/><circle cx="1043.96" cy="919.35" r="3.3" fill="#e1669e"/><polygon points="293.94 975.45 293.79 979.65 295.59 983.4 291.39 983.25 287.64 985.2 287.79 980.85 285.99 977.1 290.19 977.4 293.94 975.45" fill="#e1d066"/><polygon points="392.79 731.77 392.64 735.97 394.44 739.72 390.24 739.57 386.49 741.52 386.64 737.17 384.84 733.42 389.04 733.72 392.79 731.77" fill="#e1669e"/><polygon points="801.01 653.32 801.16 649.12 799.36 645.37 803.56 645.52 807.31 643.57 807.16 647.92 808.96 651.67 804.76 651.37 801.01 653.32" fill="#66c0e1"/><polygon points="511.51 876.82 511.66 872.62 509.86 868.87 514.06 869.02 517.81 867.07 517.66 871.42 519.46 875.17 515.26 874.87 511.51 876.82" fill="#66c0e1"/><polygon points="882.01 1001.32 882.16 997.12 880.36 993.37 884.56 993.52 888.31 991.57 888.16 995.92 889.96 999.67 885.76 999.37 882.01 1001.32" fill="#66c0e1"/><circle cx="1118.52" cy="859.42" r="3.3" fill="#99a1a3"/></g><path d="M1608.23,839a2.18,2.18,0,0,0-3,2.53A62.29,62.29,0,0,0,1639,882c-1.85-7.72-5.26-20.12-8.62-33.61Q1619.14,844.11,1608.23,839Z" transform="translate(-13.68 -25.8)" fill="#030d0f"/><path d="M1621.06,792.24c1.23-23.65,127,48.6,27.72-26.51a62.17,62.17,0,0,0-30.09,18.84,52.89,52.89,0,0,0-5.7,7.5,61.68,61.68,0,0,0-9.9,33.7,2.17,2.17,0,0,0,1,1.84,177.67,177.67,0,0,0,24.27,12.47C1624.09,822.06,1620.46,803.44,1621.06,792.24Z" transform="translate(-13.68 -25.8)" fill="#030d0f"/><path d="M1706.27,867.64q-8.24-1-16.41-2.54c5.63,6,8.75,10.92,5.21,15.21a62,62,0,0,0,12.38-8.91A2.18,2.18,0,0,0,1706.27,867.64Z" transform="translate(-13.68 -25.8)" fill="#030d0f"/><path d="M1702.32,775.62c18.67,15.87,22,36.32,22.17,38.87,2.69,55.6-68.64-7.76-64.29,11,2.94,12.49,12.5,22.65,21.09,31.1A207.34,207.34,0,0,0,1715.5,861a2.16,2.16,0,0,0,1.87-1,61.67,61.67,0,0,0,10.19-34.18v-1.1a61.28,61.28,0,0,0-.7-8.7A62.18,62.18,0,0,0,1702.32,775.62Z" transform="translate(-13.68 -25.8)" fill="#030d0f"/><path d="M1743.47,825.08a2.19,2.19,0,0,1-1-1.77,77.86,77.86,0,0,0-142-40.9,2.19,2.19,0,0,1-1.8,1c-20.47.06-34.39,4.36-36.95,12.8s6.94,19.58,24.12,30.58a2.19,2.19,0,0,1,1,1.78A77.91,77.91,0,0,0,1729,870.47a2.19,2.19,0,0,1,1.82-1c21.36,0.13,35.88-4.17,38.43-12.81S1761.65,836.52,1743.47,825.08Zm-154.73-16a2.17,2.17,0,0,1-4,.55,10.1,10.1,0,0,1-1.18-7.46h0c0.65-2.34,2.4-4.26,5.05-5.78a2.17,2.17,0,0,1,3.08,2.65m11.37,26.73a61.68,61.68,0,0,1,9.9-33.7,52.89,52.89,0,0,1,5.7-7.5,62.17,62.17,0,0,1,30.09-18.84c99.25,75.11-26.49,2.86-27.72,26.51-0.61,11.21,3,29.83,7.3,47.84a177.67,177.67,0,0,1-24.27-12.47,2.17,2.17,0,0,1-1-1.84h0Zm2.1,15.76a2.18,2.18,0,0,1,3-2.53q10.9,5.11,22.15,9.39c3.36,13.49,6.76,25.89,8.62,33.61a62.29,62.29,0,0,1-33.74-40.48h0Zm102.26,29.88a62,62,0,0,1-12.38,8.91c3.54-4.3.42-9.25-5.21-15.21q8.17,1.49,16.41,2.54a2.18,2.18,0,0,1,1.21,3.75h0Zm20.14-45.64a61.67,61.67,0,0,1-10.23,34.2,2.16,2.16,0,0,1-1.87,1,207.34,207.34,0,0,1-34.21-4.36c-8.59-8.45-18.15-18.61-21.09-31.1-4.35-18.74,67,44.62,64.29-11-0.16-2.55-3.49-23-22.17-38.87A62.18,62.18,0,0,1,1726.85,816a61.28,61.28,0,0,1,.7,8.7v1.1h0Zm21.8,24.85h0c-1,3.52-4.52,6.15-9.92,7.82a2.18,2.18,0,0,1-2.67-2.87,79.12,79.12,0,0,0,4.55-16,2.18,2.18,0,0,1,3.8-1c3.74,4.37,5.31,8.53,4.27,12h0Z" transform="translate(-13.68 -25.8)" fill="#081f28"/></svg>