<svg id="720027e7-8a29-4a04-8547-22d62bea7c4d" data-name="71b42513-4d7d-49b1-bb38-cd89fee0fa18" xmlns="http://www.w3.org/2000/svg" width="14.58" height="10.9" viewBox="0 0 14.58 10.9"><title>logo</title><path d="M3.49,8.37a0.15,0.15,0,0,0-.21.18,4.36,4.36,0,0,0,2.36,2.83C5.51,10.84,5.27,10,5,9Q4.25,8.73,3.49,8.37Z" transform="translate(-0.2 -2.04)" fill="#030d0f"/><path d="M4.39,5.1c0.09-1.65,8.89,3.4,1.94-1.86A4.35,4.35,0,0,0,4.22,4.56a3.7,3.7,0,0,0-.4.53,4.32,4.32,0,0,0-.69,2.36,0.15,0.15,0,0,0,.07.13,12.44,12.44,0,0,0,1.7.87A14.29,14.29,0,0,1,4.39,5.1Z" transform="translate(-0.2 -2.04)" fill="#030d0f"/><path d="M10.35,10.37Q9.78,10.3,9.2,10.2c0.39,0.42.61,0.76,0.36,1.06a4.34,4.34,0,0,0,.87-0.62A0.15,0.15,0,0,0,10.35,10.37Z" transform="translate(-0.2 -2.04)" fill="#030d0f"/><path d="M10.07,3.93a4.49,4.49,0,0,1,1.55,2.72c0.19,3.89-4.8-.54-4.5.77A4.84,4.84,0,0,0,8.6,9.6,14.51,14.51,0,0,0,11,9.91a0.15,0.15,0,0,0,.13-0.07,4.32,4.32,0,0,0,.71-2.39V7.37a4.29,4.29,0,0,0,0-.61A4.35,4.35,0,0,0,10.07,3.93Z" transform="translate(-0.2 -2.04)" fill="#030d0f"/><path d="M13,7.4a0.15,0.15,0,0,1-.07-0.12A5.45,5.45,0,0,0,2.94,4.41a0.15,0.15,0,0,1-.13.07c-1.43,0-2.41.31-2.59,0.9S0.72,6.75,1.92,7.52A0.15,0.15,0,0,1,2,7.64a5.45,5.45,0,0,0,10,2.93,0.15,0.15,0,0,1,.13-0.07c1.5,0,2.51-.29,2.69-0.9S14.23,8.2,13,7.4ZM2.12,6.28a0.15,0.15,0,0,1-.28,0,0.71,0.71,0,0,1-.08-0.52h0a0.7,0.7,0,0,1,.35-0.4,0.15,0.15,0,0,1,.22.19m0.8,1.87a4.32,4.32,0,0,1,.69-2.36,3.7,3.7,0,0,1,.4-0.53A4.35,4.35,0,0,1,6.32,3.24c6.95,5.26-1.85.2-1.94,1.86a14.14,14.14,0,0,0,.51,3.35,12.44,12.44,0,0,1-1.7-.87,0.15,0.15,0,0,1-.07-0.13h0Zm0.15,1.1a0.15,0.15,0,0,1,.21-0.18Q4.25,8.73,5,9c0.24,0.94.47,1.81,0.6,2.35A4.36,4.36,0,0,1,3.27,8.55h0Zm7.16,2.09a4.34,4.34,0,0,1-.87.62c0.25-.3,0-0.65-0.36-1.06q0.57,0.1,1.15.18a0.15,0.15,0,0,1,.08.26h0Zm1.41-3.19a4.32,4.32,0,0,1-.72,2.39,0.15,0.15,0,0,1-.13.07A14.51,14.51,0,0,1,8.6,9.6,4.84,4.84,0,0,1,7.12,7.43c-0.3-1.31,4.69,3.12,4.5-.77a4.49,4.49,0,0,0-1.55-2.72,4.35,4.35,0,0,1,1.72,2.83,4.29,4.29,0,0,1,0,.61V7.45h0Zm1.53,1.74h0a0.93,0.93,0,0,1-.69.55,0.15,0.15,0,0,1-.19-0.2,5.54,5.54,0,0,0,.32-1.12,0.15,0.15,0,0,1,.27-0.07,0.94,0.94,0,0,1,.3.84h0Z" transform="translate(-0.2 -2.04)" fill="#081f28"/></svg>